<svg width="1920" height="365" viewBox="0 0 1920 365" fill="none" xmlns="http://www.w3.org/2000/svg">
<path fill-rule="evenodd" clip-rule="evenodd" d="M0 16.7958C0 16.7958 -0.000131607 6.31267 25.4034 58.986C50.807 111.659 142.089 185.192 222.5 196.898C302.911 210.554 386.55 181.348 465.55 126.724C545.962 74.0504 603.384 65.5211 695.5 74.9028C823.979 87.9879 960.705 248.28 960.705 248.28C960.705 248.28 1120.12 339.971 1200.53 287.298C1279.53 234.624 1359.94 187.113 1440.35 109.078C1519.35 29.093 1575.68 -8.95368 1680.18 1.78086C1779.8 12.0148 1839.59 89.6001 1880.5 142.273L1920 196.898V365H1880.5C1839.59 365 1760.59 365 1680.18 365C1599.76 365 1519.35 365 1440.35 365C1359.94 365 1279.53 365 1200.53 365C1120.12 365 1039.71 365 960.705 365C880.294 365 799.882 365 719.471 365C640.47 365 560.059 365 479.647 365C400.647 365 320.235 365 239.824 365C159.412 365 80.4115 365 39.5004 365H0L0 16.7958Z" fill="url(#paint0_linear_757_1200)" fill-opacity="0.5"/>
<defs>
<linearGradient id="paint0_linear_757_1200" x1="1011.45" y1="-112.962" x2="1004.45" y2="364.897" gradientUnits="userSpaceOnUse">
<stop stop-color="#590CFF"/>
<stop offset="1" stop-opacity="0"/>
</linearGradient>
</defs>
</svg>
