<svg width="30" height="21" viewBox="0 0 30 21" fill="none" xmlns="http://www.w3.org/2000/svg">
<path d="M26.2844 3.49339C24.2202 1.89701 21.7432 1.09886 19.1285 0.96582L18.7156 1.36494C21.055 1.89701 23.1193 2.96123 25.0459 4.42458C22.7064 3.22731 20.0917 2.42917 17.3394 2.16309C16.5138 2.03005 15.8257 2.03005 15 2.03005C14.1743 2.03005 13.4862 2.03005 12.6606 2.16309C9.90825 2.42917 7.29356 3.22731 4.95412 4.42458C6.88069 2.96123 8.94497 1.89701 11.2844 1.36494L10.8715 0.96582C8.25684 1.09886 5.77978 1.89701 3.71559 3.49339C1.37615 7.75039 0.137616 12.5395 0 17.4615C2.06419 19.59 4.95412 20.9203 7.98169 20.9203C7.98169 20.9203 8.94497 19.8561 9.633 18.9248C7.84406 18.5258 6.19266 17.5945 5.09175 16.1313C6.05503 16.6633 7.01831 17.1955 7.98169 17.5945C9.22022 18.1267 10.4588 18.3927 11.6973 18.6588C12.7982 18.7918 13.8991 18.9248 15 18.9248C16.1009 18.9248 17.2018 18.7918 18.3027 18.6588C19.5413 18.3927 20.7798 18.1267 22.0183 17.5945C22.9817 17.1955 23.945 16.6633 24.9083 16.1313C23.8073 17.5945 22.1559 18.5258 20.367 18.9248C21.055 19.8561 22.0183 20.9203 22.0183 20.9203C25.0459 20.9203 27.9358 19.59 30 17.4615C29.8624 12.5395 28.6238 7.75039 26.2844 3.49339ZM10.4587 15.0669C9.08259 15.0669 7.84406 13.8697 7.84406 12.4064C7.84406 10.9431 9.08259 9.7458 10.4587 9.7458C11.8349 9.7458 13.0734 10.9431 13.0734 12.4064C13.0734 13.8697 11.8349 15.0669 10.4587 15.0669ZM19.5413 15.0669C18.1651 15.0669 16.9266 13.8697 16.9266 12.4064C16.9266 10.9431 18.1651 9.7458 19.5413 9.7458C20.9174 9.7458 22.1559 10.9431 22.1559 12.4064C22.1559 13.8697 20.9174 15.0669 19.5413 15.0669Z" fill="#0F1020"/>
</svg>
