<svg width="450" height="93" viewBox="0 0 450 93" fill="none" xmlns="http://www.w3.org/2000/svg">
<g clip-path="url(#clip0_127_113)">
<path d="M91.8482 25.8716L52.4993 0V14.4649L77.742 30.9137L74.7725 40.3366H52.4993V52.3217H74.7725L77.742 61.7447L52.4993 78.1933V92.6586L91.8482 66.8696L85.4136 46.3706L91.8482 25.8716Z" fill="url(#paint0_linear_127_113)"/>
<path d="M18.265 52.3217H40.4554V40.3366H18.1825L15.2953 30.9137L40.4554 14.4649V0L1.10657 25.8716L7.54099 46.3706L1.10657 66.8696L40.5379 92.6586V78.1933L15.2953 61.7447L18.265 52.3217Z" fill="url(#paint1_linear_127_113)"/>
<mask id="mask0_127_113" style="mask-type:alpha" maskUnits="userSpaceOnUse" x="1" y="0" width="91" height="93">
<path d="M91.8482 25.8716L52.4993 0V14.4649L77.742 30.9137L74.7725 40.3366H52.4993V52.3217H74.7725L77.742 61.7447L52.4993 78.1933V92.6586L91.8482 66.8696L85.4141 46.3706L91.8482 25.8716Z" fill="url(#paint2_linear_127_113)"/>
<path d="M18.2651 52.3217H40.4556V40.3366H18.1826L15.2954 30.9137L40.4556 14.4649V0L1.10669 25.8716L7.54109 46.3706L1.10669 66.8696L40.5381 92.6586V78.1933L15.2954 61.7447L18.2651 52.3217Z" fill="url(#paint3_linear_127_113)"/>
</mask>
<g mask="url(#mask0_127_113)">
<path d="M91.2465 0H1.15515V92.6586H91.2465V0Z" fill="url(#paint4_linear_127_113)"/>
</g>
<path d="M170.134 25.4809V33.5816H132.906V41.8706H164.538V49.9711H132.906V59.0764H170.134V67.1773H123.356V25.4809H170.134Z" fill="white"/>
<path d="M175.414 67.1773L196.803 46.0777L176.02 25.4809H189.168L203.832 40.3635L217.889 25.4809H230.189L209.466 46.0777L230.855 67.1773H217.585L203.832 51.8551L188.138 67.1773H175.414Z" fill="white"/>
<path d="M256.503 25.4809C273.832 25.4809 284.253 34.1828 284.253 46.329C284.253 58.4754 273.832 67.1773 256.503 67.1773C239.174 67.1773 228.812 58.4754 228.812 46.329C228.812 34.1828 239.174 25.4809 256.503 25.4809ZM256.503 33.2763C246.082 33.2763 238.4 38.5337 238.4 46.329C238.4 54.1244 246.082 59.3819 256.503 59.3819C266.984 59.3819 274.666 54.1244 274.666 46.329C274.666 38.5337 266.984 33.2763 256.503 33.2763Z" fill="white"/>
<path d="M318.795 25.4809C332.674 25.4809 341.038 33.2048 341.038 46.2663C341.038 59.4532 332.735 67.1773 318.916 67.1773H290.795V25.4809H318.795ZM331.22 46.2663C331.22 38.1028 326.371 33.5816 317.583 33.5816H300.31V59.0764H317.583C326.371 59.0764 331.22 54.4926 331.22 46.2663Z" fill="white"/>
<path d="M372.509 67.1773C357.894 67.1773 346.81 60.5254 346.81 48.269V25.4809H356.372V47.3453C356.372 54.9209 364.227 58.4316 372.509 58.4316C380.852 58.4316 388.709 54.9822 388.709 47.3453V25.4809H398.209V48.269C398.209 60.5254 387.186 67.1773 372.509 67.1773Z" fill="white"/>
<path d="M424.972 67.1773C417.121 67.1773 408.656 65.727 402.644 63.0077L405.773 55.2724C411.171 57.7502 418.593 59.3215 425.279 59.3215C432.947 59.3215 440.124 57.6897 440.124 54.7891C440.124 52.6741 437.855 51.7675 433.131 51.0424L419.759 49.592C409.453 48.2022 404.423 44.637 404.423 38.3524C404.423 30.2548 412.95 25.4809 425.463 25.4809C433.008 25.4809 443.375 26.8708 448.712 29.288L445.583 36.6604C440.308 34.4849 431.352 33.3972 425.034 33.3972C418.532 33.3972 414.238 34.9079 414.238 37.6877C414.238 39.6214 416.385 40.5883 421.906 41.3739L434.91 42.8241C444.847 44.214 450 47.598 450 54.1849C450 62.524 439.081 67.1773 424.972 67.1773Z" fill="white"/>
</g>
<defs>
<linearGradient id="paint0_linear_127_113" x1="79.119" y1="99.0289" x2="52.6226" y2="-10.1421" gradientUnits="userSpaceOnUse">
<stop stop-color="#0B46F9"/>
<stop offset="1" stop-color="#BBFBE0"/>
</linearGradient>
<linearGradient id="paint1_linear_127_113" x1="79.119" y1="99.0289" x2="52.6226" y2="-10.1421" gradientUnits="userSpaceOnUse">
<stop stop-color="#0B46F9"/>
<stop offset="1" stop-color="#BBFBE0"/>
</linearGradient>
<linearGradient id="paint2_linear_127_113" x1="79.119" y1="99.0289" x2="52.6226" y2="-10.1421" gradientUnits="userSpaceOnUse">
<stop stop-color="#0B46F9"/>
<stop offset="1" stop-color="#BBFBE0"/>
</linearGradient>
<linearGradient id="paint3_linear_127_113" x1="79.119" y1="99.0289" x2="52.6226" y2="-10.1421" gradientUnits="userSpaceOnUse">
<stop stop-color="#0B46F9"/>
<stop offset="1" stop-color="#BBFBE0"/>
</linearGradient>
<linearGradient id="paint4_linear_127_113" x1="6.93023" y1="20.8482" x2="52.6439" y2="54.8944" gradientUnits="userSpaceOnUse">
<stop offset="0.119792" stop-color="#8952FF" stop-opacity="0.87"/>
<stop offset="1" stop-color="#DABDFF" stop-opacity="0"/>
</linearGradient>
<clipPath id="clip0_127_113">
<rect width="450" height="92.9577" fill="white"/>
</clipPath>
</defs>
</svg>
