<svg width="26" height="26" viewBox="0 0 26 26" fill="none" xmlns="http://www.w3.org/2000/svg">
<path d="M13 2.72558C16.3133 2.72558 16.7651 2.72558 18.1205 2.72558C19.3253 2.72558 19.9277 3.0261 20.3795 3.17636C20.9819 3.47688 21.4337 3.62714 21.8855 4.07792C22.3374 4.5287 22.6386 4.97947 22.7892 5.58051C22.9398 6.03129 23.0904 6.63233 23.241 7.83441C23.241 9.18675 23.241 9.48727 23.241 12.9432C23.241 16.3992 23.241 16.6997 23.241 18.0521C23.241 19.2542 22.9398 19.8552 22.7892 20.306C22.488 20.907 22.3374 21.3578 21.8855 21.8086C21.4337 22.2593 20.9819 22.5599 20.3795 22.7101C19.9277 22.8604 19.3253 23.0106 18.1205 23.1609C16.7651 23.1609 16.4639 23.1609 13 23.1609C9.53615 23.1609 9.23494 23.1609 7.87952 23.1609C6.6747 23.1609 6.07229 22.8604 5.62048 22.7101C5.01807 22.4096 4.56627 22.2593 4.11446 21.8086C3.66265 21.3578 3.36145 20.907 3.21084 20.306C3.06024 19.8552 2.90964 19.2542 2.75904 18.0521C2.75904 16.6997 2.75904 16.3992 2.75904 12.9432C2.75904 9.48727 2.75904 9.18675 2.75904 7.83441C2.75904 6.63233 3.06024 6.03129 3.21084 5.58051C3.51205 4.97947 3.66265 4.5287 4.11446 4.07792C4.56627 3.62714 5.01807 3.32662 5.62048 3.17636C6.07229 3.0261 6.6747 2.87584 7.87952 2.72558C9.23494 2.72558 9.68675 2.72558 13 2.72558ZM13 0.47168C9.53615 0.47168 9.23494 0.47168 7.87952 0.47168C6.5241 0.47168 5.62048 0.7722 4.86747 1.07272C4.11446 1.37324 3.36145 1.82402 2.60843 2.57532C1.85542 3.32662 1.55422 3.92766 1.10241 4.82921C0.801206 5.58051 0.650602 6.48207 0.5 7.83441C0.5 9.18675 0.5 9.63753 0.5 12.9432C0.5 16.3992 0.5 16.6997 0.5 18.0521C0.5 19.4044 0.801206 20.306 1.10241 21.0573C1.40362 21.8086 1.85542 22.5599 2.60843 23.3112C3.36145 24.0625 3.96386 24.363 4.86747 24.8138C5.62048 25.1143 6.5241 25.2645 7.87952 25.4148C9.23494 25.4148 9.68675 25.4148 13 25.4148C16.3133 25.4148 16.7651 25.4148 18.1205 25.4148C19.4759 25.4148 20.3795 25.1143 21.1325 24.8138C21.8855 24.5132 22.6386 24.0625 23.3916 23.3112C24.1446 22.5599 24.4458 21.9588 24.8976 21.0573C25.1988 20.306 25.3494 19.4044 25.5 18.0521C25.5 16.6997 25.5 16.249 25.5 12.9432C25.5 9.63753 25.5 9.18675 25.5 7.83441C25.5 6.48207 25.1988 5.58051 24.8976 4.82921C24.5964 4.07792 24.1446 3.32662 23.3916 2.57532C22.6386 1.82402 22.0361 1.5235 21.1325 1.07272C20.3795 0.7722 19.4759 0.621939 18.1205 0.47168C16.7651 0.47168 16.4639 0.47168 13 0.47168Z" fill="#0F1020"/>
<path d="M13 6.48207C9.38554 6.48207 6.5241 9.33701 6.5241 12.9432C6.5241 16.5495 9.38554 19.4044 13 19.4044C16.6145 19.4044 19.4759 16.5495 19.4759 12.9432C19.4759 9.33701 16.6145 6.48207 13 6.48207ZM13 17.1505C10.741 17.1505 8.78313 15.3474 8.78313 12.9432C8.78313 10.6893 10.5904 8.73597 13 8.73597C15.259 8.73597 17.2169 10.5391 17.2169 12.9432C17.2169 15.1971 15.259 17.1505 13 17.1505Z" fill="#0F1020"/>
<path d="M19.6265 7.83441C20.4583 7.83441 21.1325 7.16167 21.1325 6.33181C21.1325 5.50195 20.4583 4.82921 19.6265 4.82921C18.7948 4.82921 18.1205 5.50195 18.1205 6.33181C18.1205 7.16167 18.7948 7.83441 19.6265 7.83441Z" fill="#0F1020"/>
</svg>
