<svg width="45" height="45" viewBox="0 0 45 45" fill="none" xmlns="http://www.w3.org/2000/svg">
<path id="Subtract" fill-rule="evenodd" clip-rule="evenodd" d="M25.6335 0.216458C24.6095 0.0737653 23.5634 0 22.5 0C10.0736 0 0 10.0736 0 22.5C0 34.9264 10.0736 45 22.5 45C34.9264 45 45 34.9264 45 22.5C45 21.5307 44.9387 20.5757 44.8198 19.6387L40.9221 20.7903C40.9736 21.3533 41 21.9236 41 22.5C41 32.7173 32.7173 41 22.5 41C12.2827 41 4 32.7173 4 22.5C4 12.2827 12.2827 4 22.5 4C23.2999 4 24.0879 4.05076 24.861 4.14925L25.6335 0.216458ZM24.3691 6.65377C23.756 6.58224 23.1323 6.54545 22.5 6.54545C13.6885 6.54545 6.54545 13.6885 6.54545 22.5C6.54545 31.3115 13.6885 38.4545 22.5 38.4545C31.3115 38.4545 38.4545 31.3115 38.4545 22.5C38.4545 22.1736 38.4447 21.8495 38.4254 21.528L34.4529 22.7017C34.3452 29.211 29.035 34.4545 22.5 34.4545C15.8977 34.4545 10.5455 29.1023 10.5455 22.5C10.5455 15.8977 15.8977 10.5455 22.5 10.5455C22.8691 10.5455 23.2343 10.5622 23.5949 10.5949L24.3691 6.65377ZM27.4692 11.624L28.2566 7.61557C32.7118 9.33981 36.1995 13.0067 37.6806 17.5771L33.8417 18.7113C32.7895 15.5601 30.4608 12.993 27.4692 11.624ZM40.1231 16.8554C38.3717 11.3828 34.1418 7.01873 28.7539 5.08377L29.5323 1.1208C36.3866 3.37408 41.7869 8.83169 43.961 15.7215L40.1231 16.8554Z" fill="#590CFF"/>
</svg>
