<svg width="451" height="86" viewBox="0 0 451 86" fill="none" xmlns="http://www.w3.org/2000/svg">
<path d="M396.065 43.4321C393.614 41.7994 390.89 40.7109 388.438 39.3503C386.804 38.534 385.169 37.7177 383.535 36.3571C381.083 34.4523 381.628 30.3706 384.08 28.7379C387.621 26.2889 393.614 27.6495 394.431 32.5475C394.431 32.5475 394.431 32.8196 394.703 32.8196H400.151C400.424 32.8196 400.424 32.8196 400.424 32.5475C400.151 29.2821 398.789 26.2889 396.338 24.6562C394.159 23.0235 391.435 21.9351 388.711 21.9351C374.274 21.9351 372.912 37.1734 380.811 41.7994C381.628 42.3436 389.255 46.1532 391.979 47.7859C394.703 49.4186 395.521 52.4118 394.431 54.8608C393.341 57.0378 390.617 58.6704 387.893 58.3983C384.897 58.1262 382.445 56.4935 381.628 54.0445C381.356 53.5003 381.356 52.6839 381.356 52.4118C381.356 52.4118 381.356 52.1397 381.083 52.1397H375.091C375.091 52.1397 374.818 52.1397 374.818 52.4118C374.818 56.7656 375.908 58.9425 378.904 61.1195C381.628 63.2964 384.625 64.1127 387.621 64.1127C395.793 64.1127 399.879 59.4868 400.696 54.8608C401.513 50.2349 400.151 46.1532 396.065 43.4321Z" fill="white"/>
<path d="M139.467 22.7514H136.743H133.747C133.747 22.7514 133.474 22.7514 133.474 23.0235L128.571 39.0782C128.571 39.3503 128.299 39.3503 128.027 39.0782L123.123 23.0235C123.123 23.0235 123.123 22.7514 122.851 22.7514H119.855H117.131H114.407C114.407 22.7514 114.134 22.7514 114.134 23.0235V63.8406C114.134 63.8406 114.134 64.1127 114.407 64.1127H120.399C120.399 64.1127 120.672 64.1127 120.672 63.8406V32.5475C120.672 32.2753 120.944 32.2753 121.217 32.5475L126.12 48.6022L126.392 49.6906C126.392 49.6906 126.392 49.9628 126.665 49.9628H131.295C131.295 49.9628 131.568 49.9628 131.568 49.6906L131.84 48.6022L136.743 32.5475C136.743 32.2753 137.288 32.2753 137.288 32.5475V63.5684C137.288 63.5684 137.288 63.8406 137.56 63.8406H143.553C143.553 63.8406 143.826 63.8406 143.826 63.5684V22.7514C143.826 22.7514 143.826 22.4792 143.553 22.4792H139.467V22.7514Z" fill="white"/>
<path d="M305.63 22.7514C305.357 22.7514 305.357 22.7514 305.63 22.7514L300.454 38.8061C300.454 39.0782 300.182 39.0782 299.909 38.8061L295.006 22.7514C295.006 22.7514 295.006 22.4792 294.734 22.4792H286.017C286.017 22.4792 285.745 22.4792 285.745 22.7514V63.5684C285.745 63.5684 285.745 63.8406 286.017 63.8406H292.01C292.01 63.8406 292.282 63.8406 292.282 63.5684V32.5475C292.282 32.2753 292.555 32.2753 292.827 32.5475L297.73 48.6022L298.002 49.6906C298.002 49.6906 298.002 49.9627 298.275 49.9627H302.906C302.906 49.9627 303.178 49.9627 303.178 49.6906L303.45 48.6022L308.354 32.5475C308.354 32.2753 308.898 32.2753 308.898 32.5475V63.5684C308.898 63.5684 308.898 63.8406 309.171 63.8406H315.164C315.164 63.8406 315.436 63.8406 315.436 63.5684V22.7514C315.436 22.7514 315.436 22.4792 315.164 22.4792H305.63V22.7514Z" fill="white"/>
<path d="M229.358 22.7515H218.463H212.47H201.574C201.574 22.7515 201.302 22.7515 201.302 23.0236V28.1937C201.302 28.1937 201.302 28.4659 201.574 28.4659H212.47V63.8407C212.47 63.8407 212.47 64.1128 212.742 64.1128H218.735C218.735 64.1128 219.007 64.1128 219.007 63.8407V28.4659H229.903C229.903 28.4659 230.176 28.4659 230.176 28.1937L229.358 22.7515Z" fill="white"/>
<path d="M264.225 63.8406H269.673C269.945 63.8406 269.945 63.5684 269.945 63.5684L258.777 22.7514C258.777 22.7514 258.777 22.4792 258.505 22.4792H256.326H252.784H250.605C250.605 22.4792 250.333 22.4792 250.333 22.7514L239.165 63.5684C239.165 63.8406 239.165 63.8406 239.437 63.8406H244.885C244.885 63.8406 245.157 63.8406 245.157 63.5684L248.426 51.5954C248.426 51.5954 248.426 51.3233 248.698 51.3233H260.684C260.684 51.3233 260.956 51.3233 260.956 51.5954L264.225 63.8406C263.953 63.8406 263.953 63.8406 264.225 63.8406ZM250.06 45.881L254.419 30.0984C254.419 29.8263 254.691 29.8263 254.964 30.0984L259.322 45.881C259.322 46.1532 259.322 46.1532 259.05 46.1532H250.333C250.06 46.1532 250.06 45.881 250.06 45.881Z" fill="white"/>
<path d="M355.751 63.8406H361.199C361.471 63.8406 361.471 63.5684 361.471 63.5684L350.303 22.7514C350.303 22.7514 350.303 22.4792 350.03 22.4792H347.851H344.31H342.131C342.131 22.4792 341.858 22.4792 341.858 22.7514L330.69 63.5684C330.69 63.8406 330.69 63.8406 330.963 63.8406H336.411C336.411 63.8406 336.683 63.8406 336.683 63.5684L339.952 51.5954C339.952 51.5954 339.952 51.3233 340.224 51.3233H352.21C352.21 51.3233 352.482 51.3233 352.482 51.5954L355.751 63.8406ZM341.858 45.881L346.217 30.0984C346.217 29.8263 346.489 29.8263 346.762 30.0984L351.12 45.881C351.12 46.1532 351.12 46.1532 350.848 46.1532H342.131C341.858 46.1532 341.858 45.881 341.858 45.881Z" fill="white"/>
<path d="M166.979 57.8542V45.3369C166.979 45.3369 166.979 45.0648 167.252 45.0648H183.051C183.051 45.0648 183.323 45.0648 183.323 44.7927V39.6225C183.323 39.6225 183.323 39.3504 183.051 39.3504H167.252C167.252 39.3504 166.979 39.3504 166.979 39.0783V28.1937C166.979 28.1937 166.979 27.9216 167.252 27.9216H185.23C185.23 27.9216 185.502 27.9216 185.502 27.6495V23.0236C185.502 23.0236 185.502 22.7515 185.23 22.7515H166.979H160.987C160.987 22.7515 160.714 22.7515 160.714 23.0236V28.1937V39.3504V44.7927V57.8542V63.2964C160.714 63.2964 160.714 63.5686 160.987 63.5686H166.979H185.775C185.775 63.5686 186.047 63.5686 186.047 63.2964V57.8542C186.047 57.8542 186.047 57.582 185.775 57.582L166.979 57.8542Z" fill="white"/>
<path d="M450 63.5685L429.57 42.6158V42.3437L448.093 23.2957C448.366 23.0236 448.093 23.0236 447.821 23.0236H440.194C440.194 23.0236 440.194 23.0236 439.921 23.0236L424.395 39.0783C424.122 39.3504 424.122 39.0783 424.122 38.8062V23.0236C424.122 23.0236 424.122 22.7515 423.85 22.7515H417.857C417.857 22.7515 417.585 22.7515 417.585 23.0236V63.8407C417.585 63.8407 417.585 64.1128 417.857 64.1128H423.85C423.85 64.1128 424.122 64.1128 424.122 63.8407V45.8811C424.122 45.609 424.395 45.609 424.395 45.609L442.1 63.8407C442.1 63.8407 442.1 63.8407 442.373 63.8407H450C450 63.8407 450.272 63.5685 450 63.5685Z" fill="white"/>
<path d="M87.4396 0.710144L51.4832 27.1052L58.0207 11.5947L87.4396 0.710144Z" fill="#E17726" stroke="#E17726" stroke-width="0.25" stroke-linecap="round" stroke-linejoin="round"/>
<path d="M4.90308 0.710144L40.3147 27.3773L34.0496 11.5947L4.90308 0.710144Z" fill="#E27625" stroke="#E27625" stroke-width="0.25" stroke-linecap="round" stroke-linejoin="round"/>
<path d="M74.6369 62.2079L65.103 76.6299L85.5328 82.3443L91.2531 62.48L74.6369 62.2079Z" fill="#E27625" stroke="#E27625" stroke-width="0.25" stroke-linecap="round" stroke-linejoin="round"/>
<path d="M1.0896 62.48L6.80994 82.3443L27.2397 76.6299L17.7058 62.2079L1.0896 62.48Z" fill="#E27625" stroke="#E27625" stroke-width="0.25" stroke-linecap="round" stroke-linejoin="round"/>
<path d="M26.15 37.4456L20.4297 45.8811L40.5871 46.6975L40.0423 24.9283L26.15 37.4456Z" fill="#E27625" stroke="#E27625" stroke-width="0.25" stroke-linecap="round" stroke-linejoin="round"/>
<path d="M66.1926 37.4456L52.028 24.9283L51.4832 46.9696L71.6405 46.1532L66.1926 37.4456Z" fill="#E27625" stroke="#E27625" stroke-width="0.25" stroke-linecap="round" stroke-linejoin="round"/>
<path d="M27.2397 76.63L39.4976 70.6435L28.8741 62.48L27.2397 76.63Z" fill="#E27625" stroke="#E27625" stroke-width="0.25" stroke-linecap="round" stroke-linejoin="round"/>
<path d="M52.845 70.6435L65.1028 76.63L63.4685 62.48L52.845 70.6435Z" fill="#E27625" stroke="#E27625" stroke-width="0.25" stroke-linecap="round" stroke-linejoin="round"/>
<path d="M65.1028 76.6299L52.845 70.6434L53.9346 78.5347V81.8001L65.1028 76.6299Z" fill="#D5BFB2" stroke="#D5BFB2" stroke-width="0.25" stroke-linecap="round" stroke-linejoin="round"/>
<path d="M27.2397 76.6299L38.6804 82.0722V78.8068L39.77 70.9155L27.2397 76.6299Z" fill="#D5BFB2" stroke="#D5BFB2" stroke-width="0.25" stroke-linecap="round" stroke-linejoin="round"/>
<path d="M38.6803 57.3099L28.6016 54.3166L35.6839 51.0513L38.6803 57.3099Z" fill="#233447" stroke="#233447" stroke-width="0.25" stroke-linecap="round" stroke-linejoin="round"/>
<path d="M53.3899 57.3099L56.3863 51.0513L63.4686 54.3166L53.3899 57.3099Z" fill="#233447" stroke="#233447" stroke-width="0.25" stroke-linecap="round" stroke-linejoin="round"/>
<path d="M27.2397 76.6299L28.8741 62.2079L17.7058 62.48L27.2397 76.6299Z" fill="#CC6228" stroke="#CC6228" stroke-width="0.25" stroke-linecap="round" stroke-linejoin="round"/>
<path d="M63.196 62.2079L64.8304 76.6299L74.3643 62.48L63.196 62.2079Z" fill="#CC6228" stroke="#CC6228" stroke-width="0.25" stroke-linecap="round" stroke-linejoin="round"/>
<path d="M71.9128 46.1531L51.7554 46.9695L53.6622 57.3098L56.6585 51.0512L63.7408 54.3166L71.9128 46.1531Z" fill="#CC6228" stroke="#CC6228" stroke-width="0.25" stroke-linecap="round" stroke-linejoin="round"/>
<path d="M28.6016 54.3166L35.6839 51.0512L38.6803 57.3098L40.5871 46.9695L20.4297 46.1531L28.6016 54.3166Z" fill="#CC6228" stroke="#CC6228" stroke-width="0.25" stroke-linecap="round" stroke-linejoin="round"/>
<path d="M20.4297 46.1531L28.874 62.7521L28.6016 54.5887L20.4297 46.1531Z" fill="#E27525" stroke="#E27525" stroke-width="0.25" stroke-linecap="round" stroke-linejoin="round"/>
<path d="M63.7409 54.3166L63.4685 62.48L71.9128 45.881L63.7409 54.3166Z" fill="#E27525" stroke="#E27525" stroke-width="0.25" stroke-linecap="round" stroke-linejoin="round"/>
<path d="M40.5872 46.9695L38.6804 57.3099L41.132 69.555L41.6768 53.5003L40.5872 46.9695Z" fill="#E27525" stroke="#E27525" stroke-width="0.25" stroke-linecap="round" stroke-linejoin="round"/>
<path d="M51.4831 46.9695L50.3936 53.5003L50.9384 69.555L53.3899 57.3099L51.4831 46.9695Z" fill="#E27525" stroke="#E27525" stroke-width="0.25" stroke-linecap="round" stroke-linejoin="round"/>
<path d="M53.3898 57.3098L50.9382 69.5549L52.5726 70.6434L63.1961 62.4799L63.4685 54.3165L53.3898 57.3098Z" fill="#F5841F" stroke="#F5841F" stroke-width="0.25" stroke-linecap="round" stroke-linejoin="round"/>
<path d="M28.6016 54.3165L28.874 62.4799L39.4974 70.6434L41.1318 69.5549L38.6803 57.3098L28.6016 54.3165Z" fill="#F5841F" stroke="#F5841F" stroke-width="0.25" stroke-linecap="round" stroke-linejoin="round"/>
<path d="M53.6623 82.0722V78.8069L52.8451 77.9905H39.2252L38.408 78.8069V82.0722L27.2397 76.6299L31.3257 79.8953L39.2252 85.3376H53.1175L61.2894 79.8953L65.1029 76.6299L53.6623 82.0722Z" fill="#C0AC9D" stroke="#C0AC9D" stroke-width="0.25" stroke-linecap="round" stroke-linejoin="round"/>
<path d="M52.845 70.6434L51.2106 69.555H41.1319L39.4975 70.6434L38.408 78.5348L39.2251 77.7184H52.845L53.6622 78.5348L52.845 70.6434Z" fill="black" stroke="black" stroke-width="0.25" stroke-linecap="round" stroke-linejoin="round"/>
<path d="M88.8014 29.01L91.7978 14.3158L87.167 0.710144L52.845 26.2888L66.1924 37.4455L84.9878 42.8878L89.0738 37.9897L87.167 36.9013L90.1634 34.1802L87.9842 32.5475L90.9806 30.3706L88.8014 29.01Z" fill="#763E1A" stroke="#763E1A" stroke-width="0.25" stroke-linecap="round" stroke-linejoin="round"/>
<path d="M0.272461 14.3158L3.26883 29.01L1.36205 30.3706L4.35842 32.5475L2.17924 34.1801L5.17561 36.9013L3.26883 38.2619L7.35479 43.1599L26.1502 37.7176L39.4976 26.561L4.90321 0.710144L0.272461 14.3158Z" fill="#763E1A" stroke="#763E1A" stroke-width="0.25" stroke-linecap="round" stroke-linejoin="round"/>
<path d="M84.9879 42.8879L66.1925 37.4456L71.9128 45.8811L63.4685 62.4801L74.6368 62.208H91.253L84.9879 42.8879Z" fill="#F5841F" stroke="#F5841F" stroke-width="0.25" stroke-linecap="round" stroke-linejoin="round"/>
<path d="M26.1501 37.4456L7.35473 42.8879L1.0896 62.208H17.7058L28.8741 62.4801L20.4298 45.8811L26.1501 37.4456Z" fill="#F5841F" stroke="#F5841F" stroke-width="0.25" stroke-linecap="round" stroke-linejoin="round"/>
<path d="M51.4832 46.9695L52.5727 26.2889L58.0207 11.5947H33.7773L39.2253 26.2889L40.3149 46.9695L40.8597 53.5003V69.555H50.9384V53.5003L51.4832 46.9695Z" fill="#F5841F" stroke="#F5841F" stroke-width="0.25" stroke-linecap="round" stroke-linejoin="round"/>
</svg>
