<svg width="26" height="20" viewBox="0 0 26 20" fill="none" xmlns="http://www.w3.org/2000/svg">
<path d="M25.25 2.58248C24.375 2.95663 23.375 3.20607 22.375 3.33078C23.375 2.7072 24.25 1.70948 24.625 0.587041C23.625 1.21062 22.625 1.58477 21.375 1.8342C20.5 0.836473 19.125 0.212891 17.75 0.212891C15 0.212891 12.75 2.45777 12.75 5.20152C12.75 5.57566 12.75 5.9498 12.875 6.32395C8.75 6.07452 4.99999 4.07907 2.49999 1.0859C2.12499 1.83419 1.87499 2.7072 1.87499 3.58021C1.87499 5.32623 2.75 6.82282 4.125 7.69583C3.25 7.69583 2.49999 7.4464 1.87499 7.07225C1.87499 9.44185 3.62499 11.562 5.87499 11.9362C5.49999 12.0609 5 12.0609 4.5 12.0609C4.125 12.0609 3.875 12.0609 3.5 11.9362C4.125 13.9316 6 15.4282 8.25 15.4282C6.5 16.8001 4.375 17.5484 2 17.5484C1.625 17.5484 1.25 17.5484 0.75 17.4237C3 18.7955 5.625 19.6685 8.5 19.6685C17.75 19.6685 22.75 12.0609 22.75 5.45094V4.82736C23.75 4.45322 24.625 3.5802 25.25 2.58248Z" fill="#0F1020"/>
</svg>
