<svg width="450" height="76" viewBox="0 0 450 76" fill="none" xmlns="http://www.w3.org/2000/svg">
<g clip-path="url(#clip0_127_108)">
<path fill-rule="evenodd" clip-rule="evenodd" d="M157.69 31.5539L151.412 54.4186H144.884L136.095 20.9619H143.283L148.493 45.1903H148.682L154.865 20.9619H160.703L166.886 45.1903H167.075L172.316 20.9619H179.504L170.716 54.4186H164.187L157.91 31.5539H157.69ZM189.046 49.8837C191.965 49.8837 194.382 47.9493 194.382 45.2854V43.4778L189.203 43.7949C186.692 43.9852 185.279 45.1269 185.279 46.871C185.248 48.7421 186.786 49.8837 189.046 49.8837ZM186.849 54.7992C182.172 54.7992 178.625 51.7548 178.625 47.2516C178.625 42.7167 182.078 40.1163 188.198 39.7357L194.382 39.3552V37.7378C194.382 35.4228 192.781 34.0909 190.239 34.0909C187.728 34.0909 186.158 35.3277 185.844 37.167H179.724C179.975 32.3467 184.024 29.0169 190.552 29.0169C196.861 29.0169 200.973 32.315 200.973 37.3256V54.4186H194.507V50.6131H194.382C192.969 53.2452 189.925 54.7992 186.849 54.7992ZM205.43 54.3869V20.9619H212.116V54.4186H205.43V54.3869ZM216.792 54.3869V20.9619H223.478V54.4186H216.792V54.3869ZM239.046 34.0275C236.095 34.0275 233.993 36.2791 233.773 39.3869H244.225C244.068 36.2156 242.028 34.0275 239.046 34.0275ZM244.288 46.8076H250.439C249.718 51.6596 245.292 54.9577 239.234 54.9577C231.67 54.9577 227.119 50.074 227.119 42.1142C227.119 34.186 231.701 29.0486 238.983 29.0486C246.139 29.0486 250.659 33.9323 250.659 41.4799V43.5412H233.71V43.9535C233.71 47.5053 235.939 49.9471 239.36 49.9471C241.808 49.9154 243.691 48.6786 244.288 46.8076ZM255.869 23.8161H262.555V29.556H267.106V34.6617H262.555V46.5539C262.555 48.4567 263.465 49.3446 265.443 49.3446C266.039 49.3446 266.667 49.3129 267.075 49.2178V54.1966C266.384 54.3552 265.254 54.482 263.873 54.482C258.098 54.482 255.838 52.5476 255.838 47.6956V34.6617H252.385V29.556H255.838V23.8161H255.869ZM286.001 54.9577C276.365 54.9577 270.339 48.4567 270.339 37.6427C270.339 26.8605 276.428 20.3594 286.001 20.3594C293.974 20.3594 300.031 25.4651 300.534 32.9493H293.785C293.158 28.8584 290.019 26.1628 286.001 26.1628C280.76 26.1628 277.401 30.6025 277.401 37.6427C277.401 44.778 280.728 49.186 286.033 49.186C290.144 49.186 293.095 46.7442 293.817 42.7801H300.565C299.78 50.2326 294.131 54.9577 286.001 54.9577ZM315.537 54.926C308.098 54.926 303.359 50.1057 303.359 41.9556C303.359 33.9006 308.161 29.0169 315.537 29.0169C322.913 29.0169 327.715 33.8689 327.715 41.9556C327.715 50.1374 322.976 54.926 315.537 54.926ZM315.537 49.7569C318.832 49.7569 320.904 46.9662 320.904 41.9556C320.904 37.0085 318.801 34.1543 315.537 34.1543C312.272 34.1543 310.138 37.0085 310.138 41.9556C310.17 46.9662 312.241 49.7569 315.537 49.7569ZM331.168 54.3869V29.556H337.633V33.9958H337.759C339.077 30.9197 341.651 29.1121 345.449 29.1121C350.91 29.1121 353.986 32.6004 353.986 38.4038V54.4186H347.301V39.8309C347.301 36.5962 345.794 34.7252 342.781 34.7252C339.768 34.7252 337.885 36.945 337.885 40.1797V54.4186H331.168V54.3869ZM358.224 54.3869V29.556H364.689V33.9958H364.815C366.133 30.9197 368.707 29.1121 372.505 29.1121C377.966 29.1121 381.042 32.6004 381.042 38.4038V54.4186H374.357V39.8309C374.357 36.5962 372.85 34.7252 369.837 34.7252C366.824 34.7252 364.94 36.945 364.94 40.1797V54.4186H358.224V54.3869ZM396.328 34.0275C393.377 34.0275 391.274 36.2791 391.055 39.3869H401.507C401.35 36.2156 399.31 34.0275 396.328 34.0275ZM401.569 46.8076H407.721C406.999 51.6596 402.574 54.9577 396.516 54.9577C388.952 54.9577 384.401 50.074 384.401 42.1142C384.401 34.186 388.983 29.0486 396.265 29.0486C403.421 29.0486 407.941 33.9323 407.941 41.4799V43.5412H390.992V43.9535C390.992 47.5053 393.22 49.9471 396.642 49.9471C399.09 49.9154 400.973 48.6786 401.569 46.8076ZM433.71 38.7844H427.495C427.119 36.1522 425.392 34.3129 422.63 34.3129C419.335 34.3129 417.263 37.1353 417.263 41.9239C417.263 46.8076 419.335 49.5983 422.662 49.5983C425.361 49.5983 427.087 47.981 427.495 45.2537H433.741C433.396 51.1205 429.065 54.8943 422.599 54.8943C415.192 54.8943 410.483 50.0423 410.483 41.9239C410.483 33.9641 415.192 28.9852 422.536 28.9852C429.19 29.0169 433.428 33.1712 433.71 38.7844ZM438.763 23.8161H445.449V29.556H450V34.6617H445.449V46.5539C445.449 48.4567 446.359 49.3446 448.337 49.3446C448.933 49.3446 449.561 49.3129 449.969 49.2178V54.1966C449.278 54.3552 448.148 54.482 446.767 54.482C440.992 54.482 438.732 52.5476 438.732 47.6956V34.6617H435.279V29.556H438.732V23.8161H438.763Z" fill="#3999FB"/>
<path d="M24.9215 14.7146C44.7583 -4.91544 76.9303 -4.91544 96.7671 14.7146L99.1525 17.0613C100.157 18.0444 100.157 19.63 99.1525 20.6131L90.9918 28.6998C90.4896 29.1755 89.705 29.1755 89.2028 28.6998L85.9071 25.4334C72.0653 11.7336 49.6234 11.7336 35.7815 25.4334L32.2662 28.9218C31.764 29.3975 30.9793 29.3975 30.4771 28.9218L22.285 20.8668C21.2806 19.8837 21.2806 18.2981 22.285 17.315L24.9215 14.7146ZM113.653 31.4271L120.935 38.6258C121.94 39.6089 121.94 41.1945 120.935 42.1776L88.1356 74.6194C87.1312 75.6025 85.5304 75.6025 84.5574 74.6194L61.2994 51.5962C61.0483 51.3425 60.6403 51.3425 60.3892 51.5962L37.1312 74.6194C36.1268 75.6025 34.5261 75.6025 33.553 74.6194L0.753296 42.1776C-0.251099 41.1945 -0.251099 39.6089 0.753296 38.6258L8.03515 31.4271C9.03955 30.444 10.6403 30.444 11.6133 31.4271L34.8713 54.4503C35.1224 54.704 35.5304 54.704 35.7815 54.4503L59.0396 31.4271C60.0439 30.444 61.6447 30.444 62.6177 31.4271L85.8757 54.4503C86.1268 54.704 86.5348 54.704 86.7859 54.4503L110.044 31.4271C111.048 30.444 112.649 30.444 113.653 31.4271Z" fill="#3B99FC"/>
</g>
<defs>
<clipPath id="clip0_127_108">
<rect width="450" height="75.3488" fill="white"/>
</clipPath>
</defs>
</svg>
