<svg width="28" height="20" viewBox="0 0 28 20" fill="none" xmlns="http://www.w3.org/2000/svg">
<path fill-rule="evenodd" clip-rule="evenodd" d="M3.07811 18.7445C2.58778 18.5997 2.14039 18.3422 1.7737 17.9937C1.407 17.6452 1.13175 17.2159 0.971184 16.742C0.0536513 14.2928 -0.218211 4.06558 1.54889 2.04661C2.13701 1.38983 2.96737 0.985465 3.85971 0.921287C8.6003 0.42482 23.2468 0.491016 24.929 1.08678C25.4021 1.23627 25.8344 1.48812 26.1934 1.82343C26.5524 2.15875 26.8288 2.56885 27.0019 3.023C28.0044 5.55498 28.0384 14.7562 26.866 17.1889C26.555 17.8221 26.0343 18.3351 25.3878 18.6452C23.6207 19.5057 5.42292 19.4892 3.07811 18.7445ZM10.6053 13.9453L19.101 9.64257L10.6053 5.30675V13.9453Z" fill="#0F1020"/>
</svg>
